<svg width="149" height="122" viewBox="0 0 149 122" fill="none" xmlns="http://www.w3.org/2000/svg">
<path d="M127.947 53.9643H124.644C124.644 26.1891 102.237 3.5991 74.6998 3.5991C47.1569 3.5991 24.7558 26.1948 24.7558 53.9643H21.4531C21.4531 24.357 45.3401 0.268555 74.6998 0.268555C104.06 0.268555 127.947 24.357 127.947 53.9643Z" fill="url(#paint0_linear_2866_775)"/>
<path d="M129.6 50.543H117.797V90.2493H129.6V50.543Z" fill="url(#paint1_linear_2866_775)"/>
<path d="M148.618 70.3975C148.618 79.5522 142.854 87.3386 134.773 90.2733V50.5273C142.854 53.4564 148.618 61.2484 148.618 70.3975Z" fill="url(#paint2_linear_2866_775)"/>
<path d="M30.983 50.543H19.1797V90.2493H30.983V50.543Z" fill="url(#paint3_linear_2866_775)"/>
<path d="M0.171875 70.3975C0.171875 79.5522 5.93616 87.3386 14.0162 90.2733V50.5273C5.93616 53.4564 0.171875 61.2484 0.171875 70.3975Z" fill="url(#paint4_linear_2866_775)"/>
<path d="M74.4609 115.991L81.47 115.001V118.36L74.9151 119.287L74.4609 115.991Z" fill="url(#paint5_linear_2866_775)"/>
<path d="M127.793 85.4374C127.08 87.0829 126.29 88.6888 125.415 90.2494C121.759 96.8257 116.78 102.61 110.803 107.174C103.412 112.828 94.648 116.498 85.4632 117.793L83.8203 118.025V114.666L85.0034 114.502C100.177 112.364 113.668 103.289 121.585 90.2551C122.78 88.293 123.845 86.2404 124.77 84.1143L127.793 85.4374Z" fill="url(#paint6_linear_2866_775)"/>
<path d="M81.4849 112.943H71.375V121.386H81.4849V112.943Z" fill="url(#paint7_linear_2866_775)"/>
<path d="M57.0683 65.5605C59.6603 65.5605 61.7616 63.4415 61.7616 60.8276C61.7616 58.2137 59.6603 56.0947 57.0683 56.0947C54.4763 56.0947 52.375 58.2137 52.375 60.8276C52.375 63.4415 54.4763 65.5605 57.0683 65.5605Z" fill="url(#paint8_linear_2866_775)"/>
<path d="M75.5527 65.5605C78.1447 65.5605 80.246 63.4415 80.246 60.8276C80.246 58.2137 78.1447 56.0947 75.5527 56.0947C72.9606 56.0947 70.8594 58.2137 70.8594 60.8276C70.8594 63.4415 72.9606 65.5605 75.5527 65.5605Z" fill="url(#paint9_linear_2866_775)"/>
<path d="M91.7011 65.5605C94.2931 65.5605 96.3944 63.4415 96.3944 60.8276C96.3944 58.2137 94.2931 56.0947 91.7011 56.0947C89.1091 56.0947 87.0078 58.2137 87.0078 60.8276C87.0078 63.4415 89.1091 65.5605 91.7011 65.5605Z" fill="url(#paint10_linear_2866_775)"/>
<defs>
<linearGradient id="paint0_linear_2866_775" x1="38.7495" y1="5.65844" x2="85.5584" y2="82.0191" gradientUnits="userSpaceOnUse">
<stop stop-color="#515151"/>
<stop offset="1" stop-color="#282828"/>
</linearGradient>
<linearGradient id="paint1_linear_2866_775" x1="119.714" y1="54.5286" x2="137.637" y2="58.9111" gradientUnits="userSpaceOnUse">
<stop stop-color="#515151"/>
<stop offset="1" stop-color="#282828"/>
</linearGradient>
<linearGradient id="paint2_linear_2866_775" x1="137.022" y1="54.517" x2="157.611" y2="60.416" gradientUnits="userSpaceOnUse">
<stop stop-color="#515151"/>
<stop offset="1" stop-color="#282828"/>
</linearGradient>
<linearGradient id="paint3_linear_2866_775" x1="21.0968" y1="54.5286" x2="39.0201" y2="58.9111" gradientUnits="userSpaceOnUse">
<stop stop-color="#515151"/>
<stop offset="1" stop-color="#282828"/>
</linearGradient>
<linearGradient id="paint4_linear_2866_775" x1="2.42044" y1="54.517" x2="23.0098" y2="60.416" gradientUnits="userSpaceOnUse">
<stop stop-color="#515151"/>
<stop offset="1" stop-color="#282828"/>
</linearGradient>
<linearGradient id="paint5_linear_2866_775" x1="75.5993" y1="115.431" x2="79.6144" y2="120.832" gradientUnits="userSpaceOnUse">
<stop stop-color="#515151"/>
<stop offset="1" stop-color="#282828"/>
</linearGradient>
<linearGradient id="paint6_linear_2866_775" x1="90.9622" y1="87.5181" x2="124.066" y2="122.827" gradientUnits="userSpaceOnUse">
<stop stop-color="#515151"/>
<stop offset="1" stop-color="#282828"/>
</linearGradient>
<linearGradient id="paint7_linear_2866_775" x1="73.017" y1="113.791" x2="81.2747" y2="121.925" gradientUnits="userSpaceOnUse">
<stop stop-color="#515151"/>
<stop offset="1" stop-color="#282828"/>
</linearGradient>
<linearGradient id="paint8_linear_2866_775" x1="53.8995" y1="57.0449" x2="62.9703" y2="64.4436" gradientUnits="userSpaceOnUse">
<stop stop-color="#976C2D"/>
<stop offset="1" stop-color="#282828"/>
</linearGradient>
<linearGradient id="paint9_linear_2866_775" x1="72.3839" y1="57.0449" x2="81.4547" y2="64.4436" gradientUnits="userSpaceOnUse">
<stop stop-color="#976C2D"/>
<stop offset="1" stop-color="#282828"/>
</linearGradient>
<linearGradient id="paint10_linear_2866_775" x1="88.5324" y1="57.0449" x2="97.6032" y2="64.4436" gradientUnits="userSpaceOnUse">
<stop stop-color="#976C2D"/>
<stop offset="1" stop-color="#282828"/>
</linearGradient>
</defs>
</svg>
