<svg width="159" height="143" viewBox="0 0 159 143" fill="none" xmlns="http://www.w3.org/2000/svg">
<path d="M25.8935 105.279V137.222L0.1875 107.309L25.8935 105.279Z" fill="url(#paint0_linear_2856_670)"/>
<path d="M158.721 127.967V127.974L30.0312 142.033V104.953L130.031 97.0625L158.721 127.967Z" fill="#C69742"/>
<path d="M157.955 18.2168L30.0234 27.6286V142.032L158.713 127.973V127.966L157.955 18.2168ZM99.0898 56.7515C101.695 56.7515 103.808 59.0881 103.808 61.9599C103.808 64.8317 101.695 67.1618 99.0898 67.1618C96.4849 67.1618 94.3654 64.8317 94.3654 61.9599C94.3654 59.0881 96.4849 56.7515 99.0898 56.7515Z" fill="url(#paint1_linear_2856_670)"/>
<path d="M11.6404 61.9596C13.5172 61.9596 15.0387 60.2823 15.0387 58.2132C15.0387 56.1441 13.5172 54.4668 11.6404 54.4668C9.76363 54.4668 8.24219 56.1441 8.24219 58.2132C8.24219 60.2823 9.76363 61.9596 11.6404 61.9596Z" fill="#866026"/>
<path d="M56.87 6.18903C58.2826 6.18903 59.4276 4.92661 59.4276 3.36938C59.4276 1.81215 58.2826 0.549805 56.87 0.549805C55.4575 0.549805 54.3125 1.81215 54.3125 3.36938C54.3125 4.92661 55.4575 6.18903 56.87 6.18903Z" fill="#8E692C"/>
<defs>
<linearGradient id="paint0_linear_2856_670" x1="30.6753" y1="139.029" x2="-22.7641" y2="97.1382" gradientUnits="userSpaceOnUse">
<stop stop-color="#3C3B3B"/>
<stop offset="1" stop-color="#252525"/>
</linearGradient>
<linearGradient id="paint1_linear_2856_670" x1="94.3684" y1="18.2168" x2="94.3684" y2="142.032" gradientUnits="userSpaceOnUse">
<stop stop-color="#50504E"/>
<stop offset="1" stop-color="#383838"/>
</linearGradient>
</defs>
</svg>
