<svg width="146" height="132" viewBox="0 0 146 132" fill="none" xmlns="http://www.w3.org/2000/svg">
<path d="M62.7246 111.064C35.6007 111.064 13.5312 88.926 13.5312 61.7173C13.5312 34.5086 35.6007 12.3701 62.7246 12.3701C89.8484 12.3701 111.918 34.5086 111.918 61.7173C111.918 88.926 89.8484 111.064 62.7246 111.064ZM62.7246 21.4875C40.6162 21.4875 22.6267 39.5332 22.6267 61.7108C22.6267 83.8883 40.6162 101.934 62.7246 101.934C84.833 101.934 102.822 83.8883 102.822 61.7108C102.822 39.5332 84.833 21.4875 62.7246 21.4875Z" fill="url(#paint0_linear_2868_818)"/>
<path d="M35.768 65.6128C35.0469 64.531 34.4362 63.3774 33.9425 62.1783C33.5072 60.9857 33.2213 59.7539 32.9485 58.4766C32.7665 57.2188 32.7081 55.948 32.6821 54.6446C32.6626 53.9929 32.7665 53.3737 32.825 52.7286C32.8965 52.0899 32.9549 51.4382 33.0719 50.7995C33.1823 50.1609 33.3707 49.5482 33.5202 48.9096C33.6956 48.2839 33.897 47.6648 34.0854 47.0392C34.2933 46.4201 34.5596 45.827 34.826 45.2339C35.0924 44.6344 35.3717 44.0478 35.6641 43.4548C36.3073 42.3208 37.0349 41.2259 37.7755 40.1376C38.5941 39.1144 39.4582 38.1304 40.3482 37.1593C41.3162 36.273 42.2973 35.3997 43.3237 34.5851C44.4087 33.8487 45.5001 33.1122 46.6306 32.4736C47.8065 31.8935 48.9889 31.3396 50.2038 30.8964C51.4447 30.4923 52.692 30.1339 53.9459 29.8797C54.5826 29.7624 55.2323 29.7103 55.8689 29.6321C56.5121 29.5734 57.1293 29.4692 57.779 29.4887C59.0718 29.5148 60.3452 29.5734 61.5926 29.7559C62.8594 30.0296 64.0873 30.3099 65.2762 30.7465C66.4716 31.2418 67.6215 31.8479 68.7 32.5648V33.412L65.5621 33.6727C64.5291 33.8356 63.5026 34.0507 62.4761 34.2331C61.4626 34.4743 60.4621 34.7806 59.4551 35.0543C58.4676 35.3867 57.5061 35.7972 56.5381 36.1622C52.7245 37.8175 49.2098 40.1702 46.2993 43.142C43.3432 46.0681 40.9979 49.5873 39.3477 53.4128C38.9839 54.3904 38.5746 55.3484 38.2433 56.339C37.9769 57.3492 37.6716 58.3463 37.4247 59.3694C37.2428 60.3991 37.0284 61.4288 36.866 62.465L36.6061 65.6128H35.768Z" fill="url(#paint1_linear_2868_818)"/>
<path d="M103.219 85.196L95.6484 97.1953L138.429 124.356L146 112.357L103.219 85.196Z" fill="url(#paint2_linear_2868_818)"/>
<path d="M5.40529 89.05C5.40529 90.5489 4.19689 91.7611 2.70264 91.7611C1.20839 91.7611 0 90.5489 0 89.05C0 87.5511 1.20839 86.3389 2.70264 86.3389C4.19689 86.3389 5.40529 87.5576 5.40529 89.05Z" fill="url(#paint3_linear_2868_818)"/>
<path d="M32.6887 126.881C35.0203 124.543 35.0203 120.75 32.6887 118.412C30.3571 116.073 26.5768 116.073 24.2452 118.412C21.9136 120.75 21.9136 124.543 24.2452 126.881C26.5768 129.22 30.3571 129.22 32.6887 126.881Z" fill="url(#paint4_linear_2868_818)"/>
<path d="M18.339 3.76768C18.339 5.42301 17.0007 6.75902 15.357 6.75902C13.7068 6.75902 12.375 5.41649 12.375 3.76768C12.375 2.11234 13.7133 0.776367 15.357 0.776367C17.0007 0.776367 18.339 2.11886 18.339 3.76768Z" fill="url(#paint5_linear_2868_818)"/>
<defs>
<linearGradient id="paint0_linear_2868_818" x1="62.7246" y1="12.3701" x2="62.7246" y2="111.064" gradientUnits="userSpaceOnUse">
<stop stop-color="#464646"/>
<stop offset="1" stop-color="#363636"/>
</linearGradient>
<linearGradient id="paint1_linear_2868_818" x1="50.6898" y1="29.4863" x2="50.6898" y2="65.6128" gradientUnits="userSpaceOnUse">
<stop stop-color="#4A4B4A"/>
<stop offset="1" stop-color="#232323"/>
</linearGradient>
<linearGradient id="paint2_linear_2868_818" x1="99.4338" y1="91.1957" x2="142.291" y2="118.235" gradientUnits="userSpaceOnUse">
<stop stop-color="#4B4B4B"/>
<stop offset="1" stop-color="#2F2F2F"/>
</linearGradient>
<linearGradient id="paint3_linear_2868_818" x1="2.70264" y1="86.3389" x2="2.70264" y2="91.7611" gradientUnits="userSpaceOnUse">
<stop stop-color="#986D2E"/>
<stop offset="1" stop-color="#1A1A1A" stop-opacity="0"/>
</linearGradient>
<linearGradient id="paint4_linear_2868_818" x1="24.2452" y1="118.412" x2="32.715" y2="126.855" gradientUnits="userSpaceOnUse">
<stop stop-color="#986D2E"/>
<stop offset="1" stop-color="#1A1A1A" stop-opacity="0"/>
</linearGradient>
<linearGradient id="paint5_linear_2868_818" x1="15.357" y1="0.776367" x2="15.357" y2="6.75902" gradientUnits="userSpaceOnUse">
<stop stop-color="#986D2E"/>
<stop offset="1" stop-color="#1A1A1A" stop-opacity="0"/>
</linearGradient>
</defs>
</svg>
