<svg width="184" height="113" viewBox="0 0 184 113" fill="none" xmlns="http://www.w3.org/2000/svg">
<path d="M75.3828 53.8872L81.0961 55.7679L105.434 63.7842L110.199 65.3558L111.422 61.9692L106.087 60.2134L82.3817 52.4076L76.7097 50.54L75.3828 53.8872Z" fill="#9D7230"/>
<path d="M171.518 18.6861L168.314 22.8619L143.096 55.7815L139.019 61.095C138.916 60.7662 138.793 60.4373 138.655 60.1151C138.249 59.1681 137.748 58.2935 137.156 57.4846L140.828 52.6908L165.296 20.751L168.5 16.5752L171.518 18.6861Z" fill="#91682B"/>
<path d="M174.994 33.5608L167.3 21.1914L152.656 17.9034L183.223 0.411133L174.994 33.5608Z" fill="#91682B"/>
<path d="M50.4661 54.0467L46.8773 59.222L33.347 78.7134L30.0194 83.5205C29.0913 82.7051 28.06 82.0278 26.9531 81.4754L30.2738 76.688L44.7254 55.8551L48.9123 49.8184C49.0842 50.7719 49.3661 51.7123 49.758 52.6263C49.9642 53.1261 50.2048 53.593 50.4661 54.0467Z" fill="#9B6F2F"/>
<path d="M81.5654 40.1894C77.3578 30.3451 65.5532 25.6103 55.268 29.6414C50.2904 31.5945 46.3922 35.2837 44.3159 40.0316C42.2327 44.7795 42.2052 50.0205 44.2471 54.7947C44.4052 55.1498 44.5703 55.5115 44.749 55.8535C45.354 57.0635 46.0828 58.1945 46.9009 59.2204C50.7372 64.0012 56.7117 66.7762 62.9337 66.7762C65.4707 66.7762 68.0488 66.3094 70.5376 65.3361C75.2334 63.4948 78.9597 60.1147 81.1185 55.768C81.2422 55.4984 81.3797 55.2222 81.4966 54.946C81.861 54.1108 82.1635 53.2625 82.4041 52.4076C82.851 50.7899 83.0779 49.1459 83.0779 47.4954C83.0779 45.0162 82.576 42.5436 81.5654 40.1894ZM75.9828 52.7364C75.8109 53.131 75.6184 53.519 75.4052 53.8872C73.8583 56.6689 71.3695 58.839 68.2688 60.0424C61.5518 62.6728 53.9136 59.9832 50.4897 54.0385C50.2285 53.5847 49.9879 53.1179 49.7816 52.6247C49.3897 51.7106 49.1078 50.7637 48.936 49.8167C48.4753 47.285 48.771 44.6677 49.8366 42.2411C51.301 38.9005 54.0373 36.303 57.5368 34.9418C59.2968 34.2578 61.105 33.929 62.8925 33.929C65.6838 33.929 68.4132 34.7247 70.7164 36.178C73.0264 37.6313 74.9102 39.7422 76.0309 42.366C77.1584 44.9899 77.3922 47.8373 76.7321 50.5467C76.5465 51.2832 76.299 52.0197 75.9828 52.7364Z" fill="url(#paint0_linear_2856_620)"/>
<path d="M39.4411 87.0978C38.1829 83.7046 36.0379 80.8637 33.336 78.7134C32.3803 77.9505 31.3491 77.2667 30.2628 76.688C25.3814 74.0773 19.4001 73.4131 13.7143 75.3267C5.45042 78.1215 0.273438 85.5853 0.273438 93.5358C0.273438 95.6598 0.63782 97.8167 1.41471 99.9276C4.33664 107.845 12.1399 112.803 20.4451 112.803C22.6658 112.803 24.9208 112.448 27.1346 111.699C37.6261 108.161 43.1399 97.1262 39.4411 87.0978ZM25.1546 106.3C17.7844 108.792 9.67175 105.077 7.06607 98.0271C4.46727 90.9776 8.34485 83.218 15.715 80.7257C19.5513 79.4302 23.587 79.8182 26.949 81.4753C28.0559 82.0277 29.0871 82.705 30.0153 83.5205C31.6859 84.9738 33.006 86.8216 33.8035 88.9983C36.4023 96.0544 32.5247 103.814 25.1546 106.3Z" fill="url(#paint1_linear_2856_620)"/>
<path d="M144.191 57.9522C143.868 57.2025 143.51 56.4791 143.098 55.7821C142.452 54.6707 141.695 53.6449 140.829 52.6914C138.828 50.4292 136.271 48.6405 133.328 47.4634C128.365 45.4774 122.885 45.4445 117.894 47.3976C111.857 49.7584 107.67 54.6115 106.082 60.2077C105.745 61.3717 105.532 62.5686 105.429 63.7851C105.395 64.2783 105.367 64.7781 105.367 65.2713C105.367 67.6979 105.855 70.1638 106.873 72.5443C110.056 80.0016 117.612 84.5324 125.559 84.5324C128.096 84.5324 130.675 84.0656 133.163 83.0923C138.148 81.1392 142.039 77.4501 144.115 72.7022C146.206 67.9543 146.233 62.7132 144.191 57.9522ZM138.608 70.4992C137.144 73.8398 134.408 76.4374 130.901 77.7986C123.662 80.6329 115.371 77.3054 112.407 70.3874C109.444 63.4628 112.923 55.5322 120.162 52.6979C123.669 51.3236 127.519 51.3367 131.011 52.7439C133.521 53.7501 135.638 55.3875 137.158 57.4852C137.749 58.2941 138.251 59.1753 138.657 60.1156C138.801 60.4379 138.918 60.7667 139.021 61.0955C140.073 64.1731 139.935 67.4808 138.608 70.4992Z" fill="url(#paint2_linear_2856_620)"/>
<defs>
<linearGradient id="paint0_linear_2856_620" x1="62.9061" y1="28.2031" x2="62.9061" y2="66.7762" gradientUnits="userSpaceOnUse">
<stop stop-color="#545454"/>
<stop offset="1" stop-color="#363636"/>
</linearGradient>
<linearGradient id="paint1_linear_2856_620" x1="20.4326" y1="74.2266" x2="20.4326" y2="112.803" gradientUnits="userSpaceOnUse">
<stop stop-color="#545454"/>
<stop offset="1" stop-color="#363636"/>
</linearGradient>
<linearGradient id="paint2_linear_2856_620" x1="125.535" y1="45.9531" x2="125.535" y2="84.5324" gradientUnits="userSpaceOnUse">
<stop stop-color="#545454"/>
<stop offset="1" stop-color="#363636"/>
</linearGradient>
</defs>
</svg>
