<svg width="135" height="140" viewBox="0 0 135 140" fill="none" xmlns="http://www.w3.org/2000/svg">
<path d="M25.1484 20.5467L38.3055 35.4122C42.0513 31.5442 45.0428 27.1614 47.2746 22.4699C40.1472 19.9996 32.5412 19.3495 25.1484 20.5467Z" fill="url(#paint0_linear_2856_572)"/>
<path d="M47.8087 51.4851L38.0905 40.5039C33.7204 44.4207 28.8248 47.487 23.5859 49.616C25.438 55.5373 28.4087 61.1715 32.5082 66.1609L47.8087 51.4851Z" fill="url(#paint1_linear_2856_572)"/>
<path d="M40.625 38.0624L50.3432 49.0436L65.6438 34.3623C61.1956 29.6925 56.0348 26.1441 50.5097 23.7441C48.075 28.9449 44.7766 33.7935 40.625 38.0624Z" fill="url(#paint2_linear_2856_572)"/>
<path d="M67.9958 37.0088L52.6953 51.6901L61.3574 61.474C65.9512 57.3621 71.0705 54.2579 76.4603 52.156C74.5926 46.7439 71.7728 41.6028 67.9958 37.0088Z" fill="url(#paint3_linear_2856_572)"/>
<path d="M77.5262 55.5977C72.6046 57.5371 67.9276 60.3813 63.7188 64.1301L77.932 80.1928C79.7892 72.1209 79.6696 63.6371 77.5262 55.5977Z" fill="url(#paint4_linear_2856_572)"/>
<path d="M47.2681 82.1326C41.8159 79.5593 36.733 75.935 32.3057 71.2598L21.6094 81.5204C27.998 88.1568 36.0307 92.1386 44.3963 93.3954C44.9529 89.5111 45.9206 85.7406 47.2681 82.1326Z" fill="url(#paint5_linear_2856_572)"/>
<path d="M70.5391 34.5673C70.5391 34.5673 70.5391 34.5727 70.5391 34.5673C74.6594 39.5459 77.7185 45.1313 79.7371 51.0092C83.3372 49.8932 87.031 49.2106 90.7455 48.9506C90.2253 40.1581 87.0726 31.4848 81.2354 24.3066L70.5391 34.5673Z" fill="url(#paint6_linear_2856_572)"/>
<path d="M50.1443 54.1357L34.8438 68.817C38.9277 73.1076 43.61 76.4502 48.6252 78.823C51.1171 73.3297 54.5404 68.2915 58.796 63.9196L50.1443 54.1357Z" fill="url(#paint7_linear_2856_572)"/>
<path d="M22.6365 46.1326C27.3656 44.1715 31.7929 41.3869 35.752 37.8547L22.5949 22.9893C20.8469 30.5683 20.8469 38.5265 22.6365 46.1326Z" fill="url(#paint8_linear_2856_572)"/>
<path d="M9.73704 49.3564C9.67461 50.5483 9.66422 51.7455 9.70064 52.9428L9.73704 49.3564Z" fill="url(#paint9_linear_2856_572)"/>
<path d="M29.9512 68.6039C25.5135 63.2406 22.3087 57.1785 20.3058 50.8076C16.8721 51.9236 13.3188 52.655 9.6875 52.98C9.97364 62.1951 13.1419 71.3506 19.2549 78.87L29.9512 68.6039Z" fill="url(#paint10_linear_2856_572)"/>
<path d="M18.6046 25.1182C13.1368 32.1825 10.1558 40.7042 9.71875 49.3558C13.0067 49.0362 16.2271 48.359 19.3382 47.3459C17.5745 40.0595 17.3352 32.4696 18.6046 25.1182Z" fill="url(#paint11_linear_2856_572)"/>
<path d="M50.4814 83.5088C49.2588 86.7972 48.3744 90.2264 47.8594 93.764C47.8594 93.764 47.8594 93.764 47.8646 93.764C56.584 94.3003 65.4594 91.9275 73.0238 86.5696C65.423 87.3389 57.6973 86.3096 50.4814 83.5088Z" fill="url(#paint12_linear_2856_572)"/>
<path d="M48.6845 19.1645C49.9227 15.9899 50.8228 12.6961 51.395 9.35351C43.0919 9.10431 34.7002 11.5042 27.5 16.5966C34.6274 15.8815 41.8641 16.7483 48.6845 19.1645Z" fill="url(#paint13_linear_2856_572)"/>
<path d="M80.7891 54.4439C82.8753 62.1529 83.2238 70.2411 81.8712 78.0639C87.6095 70.6529 90.6062 61.6436 90.8091 52.5586C87.4326 52.8078 84.0718 53.4362 80.7891 54.4439Z" fill="url(#paint14_linear_2856_572)"/>
<path d="M51.9219 20.4428C57.8683 23.0377 63.4142 26.8678 68.1952 31.9169L78.8916 21.6563C72.1908 14.6894 63.6743 10.6534 54.8665 9.61328C54.263 13.3026 53.2797 16.9377 51.9219 20.4428Z" fill="url(#paint15_linear_2856_572)"/>
<path d="M75.3772 82.636L61.164 66.5732C57.2778 70.5767 54.1459 75.1816 51.8516 80.1981C59.3744 83.0856 67.4954 83.9036 75.3772 82.636Z" fill="url(#paint16_linear_2856_572)"/>
<path d="M64.5735 139.669L58.008 133.098L51.4737 126.494L38.405 113.281L25.3832 100.019L18.8853 93.3714L15.6389 90.0451L14.0314 88.3061C13.5007 87.721 13.0117 87.098 12.4966 86.4967C8.5063 81.5777 5.38481 75.8731 3.39746 69.7568C1.3997 63.6459 0.494462 57.1396 0.754587 50.6766C1.00951 44.2136 2.45581 37.8047 4.95821 31.878C7.4554 25.9514 11.0347 20.5231 15.4152 15.9291L15.3528 15.9995L15.384 15.9616L15.4152 15.9291C19.8529 11.3297 25.1127 7.58623 30.8562 4.98044C36.5945 2.37465 42.8011 0.890266 49.0545 0.646481C55.3079 0.408113 61.5977 1.38325 67.4921 3.53398C70.442 4.60663 73.2929 5.96641 75.993 7.59164C78.6931 9.22229 81.2371 11.1184 83.5938 13.242C84.1817 13.7784 84.7748 14.2984 85.3263 14.8727C85.8777 15.4361 86.4656 15.9941 86.9859 16.5629L90.201 19.9651L96.6313 26.7802L109.461 40.4322L122.238 54.1383L128.627 60.9914L134.984 67.8824L128.366 61.2622L121.785 54.6096L108.623 41.3044L95.5127 27.945L88.968 21.249L85.7009 17.901C85.1598 17.3322 84.6083 16.823 84.0569 16.2812C83.521 15.7341 82.9383 15.2411 82.366 14.7373C77.767 10.7283 72.4657 7.62415 66.8002 5.61969C61.1347 3.61524 55.1102 2.74303 49.143 3.03016C43.1757 3.30645 37.2605 4.7204 31.8031 7.22867C26.3404 9.72612 21.3513 13.3125 17.1216 17.7006L17.1841 17.6302L17.1528 17.6681L17.1216 17.7006C12.9336 22.0671 9.51559 27.219 7.11724 32.864C4.70848 38.5036 3.34023 44.609 3.03328 50.7795C2.72633 56.95 3.53793 63.18 5.40042 69.0525C7.26291 74.925 10.1659 80.44 13.9377 85.2399C14.4215 85.8249 14.8898 86.4317 15.3892 87.0059L16.9187 88.707L20.1131 92.0875L26.4965 98.8539L39.2322 112.414L51.9211 126.022L58.2629 132.827L64.5735 139.669Z" fill="#9D7937"/>
<path d="M64.8906 102.565C67.674 104.581 70.2388 106.824 72.736 109.137C75.228 111.461 77.6315 113.872 79.9623 116.358C82.293 118.845 84.5456 121.413 86.7151 124.073C88.8741 126.738 90.9707 129.474 92.8384 132.443C90.0499 130.427 87.485 128.185 84.9878 125.871C82.4959 123.547 80.0923 121.136 77.7668 118.644C75.4413 116.152 73.1834 113.585 71.014 110.93C68.8601 108.265 66.7687 105.529 64.8906 102.565Z" fill="#9D7937"/>
<path d="M99.6797 67.3877C102.463 69.403 105.028 71.6458 107.525 73.9591C110.017 76.2831 112.421 78.6939 114.751 81.1805C117.082 83.6671 119.335 86.235 121.504 88.8949C123.663 91.5603 125.76 94.2961 127.627 97.2649C124.839 95.2496 122.274 93.0068 119.777 90.6935C117.285 88.3695 114.881 85.9587 112.556 83.4667C110.23 80.9746 107.972 78.4068 105.803 75.7522C103.649 73.0814 101.558 70.351 99.6797 67.3877Z" fill="#9D7937"/>
<path d="M89.9766 90.2686C93.046 93.1127 95.949 96.1302 98.8104 99.1965C101.661 102.268 104.445 105.41 107.176 108.612C109.907 111.808 112.581 115.07 115.193 118.396C117.794 121.733 120.354 125.108 122.742 128.667C119.667 125.829 116.769 122.806 113.908 119.745C111.057 116.673 108.274 113.531 105.542 110.329C102.811 107.128 100.137 103.872 97.5306 100.545C94.9241 97.2029 92.3645 93.8224 89.9766 90.2686Z" fill="#9D7937"/>
<defs>
<linearGradient id="paint0_linear_2856_572" x1="43.3875" y1="33.7839" x2="34.8591" y2="16.398" gradientUnits="userSpaceOnUse">
<stop stop-color="#282828"/>
<stop offset="1" stop-color="#585858"/>
</linearGradient>
<linearGradient id="paint1_linear_2856_572" x1="43.5533" y1="63.4566" x2="26.3962" y2="40.4014" gradientUnits="userSpaceOnUse">
<stop stop-color="#282828"/>
<stop offset="1" stop-color="#585858"/>
</linearGradient>
<linearGradient id="paint2_linear_2856_572" x1="61.2485" y1="46.377" x2="44.5706" y2="22.9021" gradientUnits="userSpaceOnUse">
<stop stop-color="#282828"/>
<stop offset="1" stop-color="#585858"/>
</linearGradient>
<linearGradient id="paint3_linear_2856_572" x1="72.2853" y1="58.8953" x2="56.0645" y2="36.4684" gradientUnits="userSpaceOnUse">
<stop stop-color="#282828"/>
<stop offset="1" stop-color="#585858"/>
</linearGradient>
<linearGradient id="paint4_linear_2856_572" x1="76.5098" y1="77.6005" x2="59.4385" y2="62.2707" gradientUnits="userSpaceOnUse">
<stop stop-color="#282828"/>
<stop offset="1" stop-color="#585858"/>
</linearGradient>
<linearGradient id="paint5_linear_2856_572" x1="42.7603" y1="91.0623" x2="29.0606" y2="68.4594" gradientUnits="userSpaceOnUse">
<stop stop-color="#282828"/>
<stop offset="1" stop-color="#585858"/>
</linearGradient>
<linearGradient id="paint6_linear_2856_572" x1="87.1957" y1="48.1947" x2="68.6055" y2="28.1717" gradientUnits="userSpaceOnUse">
<stop stop-color="#282828"/>
<stop offset="1" stop-color="#585858"/>
</linearGradient>
<linearGradient id="paint7_linear_2856_572" x1="54.5881" y1="76.221" x2="38.214" y2="53.6089" gradientUnits="userSpaceOnUse">
<stop stop-color="#282828"/>
<stop offset="1" stop-color="#585858"/>
</linearGradient>
<linearGradient id="paint8_linear_2856_572" x1="33.2112" y1="43.6932" x2="17.1647" y2="29.42" gradientUnits="userSpaceOnUse">
<stop stop-color="#282828"/>
<stop offset="1" stop-color="#585858"/>
</linearGradient>
<linearGradient id="paint9_linear_2856_572" x1="9.72697" y1="52.5648" x2="9.61304" y2="52.5622" gradientUnits="userSpaceOnUse">
<stop stop-color="#282828"/>
<stop offset="1" stop-color="#585858"/>
</linearGradient>
<linearGradient id="paint10_linear_2856_572" x1="26.3913" y1="75.9122" x2="6.80791" y2="55.7846" gradientUnits="userSpaceOnUse">
<stop stop-color="#282828"/>
<stop offset="1" stop-color="#585858"/>
</linearGradient>
<linearGradient id="paint11_linear_2856_572" x1="17.6482" y1="46.8011" x2="3.15603" y2="38.6146" gradientUnits="userSpaceOnUse">
<stop stop-color="#282828"/>
<stop offset="1" stop-color="#585858"/>
</linearGradient>
<linearGradient id="paint12_linear_2856_572" x1="68.6029" y1="92.7494" x2="64.7631" y2="79.4347" gradientUnits="userSpaceOnUse">
<stop stop-color="#282828"/>
<stop offset="1" stop-color="#585858"/>
</linearGradient>
<linearGradient id="paint13_linear_2856_572" x1="47.1972" y1="18.1286" x2="43.5371" y2="5.46334" gradientUnits="userSpaceOnUse">
<stop stop-color="#282828"/>
<stop offset="1" stop-color="#585858"/>
</linearGradient>
<linearGradient id="paint14_linear_2856_572" x1="89.0488" y1="75.3756" x2="73.8791" y2="66.8932" gradientUnits="userSpaceOnUse">
<stop stop-color="#282828"/>
<stop offset="1" stop-color="#585858"/>
</linearGradient>
<linearGradient id="paint15_linear_2856_572" x1="74.1535" y1="29.5661" x2="60.6266" y2="6.28458" gradientUnits="userSpaceOnUse">
<stop stop-color="#282828"/>
<stop offset="1" stop-color="#585858"/>
</linearGradient>
<linearGradient id="paint16_linear_2856_572" x1="71.2442" y1="81.4603" x2="61.9843" y2="62.8275" gradientUnits="userSpaceOnUse">
<stop stop-color="#282828"/>
<stop offset="1" stop-color="#585858"/>
</linearGradient>
</defs>
</svg>
