<svg width="108" height="134" viewBox="0 0 108 134" fill="none" xmlns="http://www.w3.org/2000/svg">
<path d="M89.357 2.11026L89.5385 60.7251L58.2873 8.87738C57.005 6.7457 54.7914 5.47172 52.3721 5.47172C51.0596 5.47172 49.7714 5.85645 48.6585 6.58803L47.8359 7.1304L47.9085 4.36181C47.9629 2.43195 49.5053 0.90571 51.3621 0.962471" fill="url(#paint0_linear_2856_646)"/>
<path d="M92.602 72.9224L103.688 91.3192L103.519 97.6889C103.471 99.6251 101.922 101.145 100.072 101.095L91.0537 100.836L89.6625 100.792L48.7281 99.6061C46.8713 99.5494 45.4137 97.9412 45.4621 96.005L47.712 11.6777L50.5849 9.79199C51.1414 9.4262 51.7583 9.25586 52.3692 9.25586C53.4881 9.25586 54.5768 9.83614 55.2119 10.8957L89.5597 67.8833L91.0778 70.3997L92.602 72.8971V72.9224Z" fill="url(#paint1_linear_2856_646)"/>
<path d="M105.959 6.04453L103.867 84.5129L92.5746 65.7693L92.375 2.15332L102.699 2.44972C104.55 2.50648 106.014 4.11467 105.959 6.04453Z" fill="url(#paint2_linear_2856_646)"/>
<path d="M92.6816 100.829L91.0486 100.836H89.6575V100.791L89.5547 67.8828L91.0728 70.3992L92.597 72.8966V72.9219L92.6816 100.829Z" fill="url(#paint3_linear_2856_646)"/>
<path d="M106.933 96.6493L103.721 91.3201L92.635 72.9234V72.8981L91.1108 70.4007L89.5927 67.8843L55.2448 10.8966C54.6097 9.83712 53.521 9.25684 52.4021 9.25684C51.7913 9.25684 51.1743 9.42718 50.6179 9.79297L47.745 11.6787L2.34092 41.4275C0.774427 42.4618 0.302671 44.6187 1.28853 46.2585L52.9707 132.011C53.6118 133.071 54.7005 133.651 55.8194 133.651C56.4303 133.651 57.0471 133.481 57.5975 133.115L105.881 101.48C107.447 100.446 107.919 98.2891 106.933 96.6493ZM19.4877 62.3596L11.0564 48.4974L13.0947 47.1477L21.532 61.0099L19.4877 62.3596ZM22.2275 42.1717L29.1104 37.6561C29.6426 37.3092 30.3382 37.4732 30.6708 38.0282L38.4851 50.9885C38.8178 51.5372 38.6545 52.2688 38.1283 52.6156L31.2394 57.1313C30.7132 57.4781 30.0116 57.3079 29.6789 56.7592L21.8707 43.7988C21.538 43.2438 21.6953 42.5186 22.2275 42.1717ZM32.3341 83.7205L23.9029 69.8583L25.9472 68.5087L34.3784 82.3708L32.3341 83.7205ZM44.6543 103.713L36.2231 89.8506L38.2614 88.501L46.6987 102.357L44.6543 103.713ZM56.6782 123.724L48.2409 109.862L50.2852 108.512L58.7165 122.374L56.6782 123.724Z" fill="url(#paint4_linear_2856_646)"/>
<path d="M9.7136 116.779C12.0752 116.779 13.9897 114.783 13.9897 112.32C13.9897 109.858 12.0752 107.861 9.7136 107.861C7.35198 107.861 5.4375 109.858 5.4375 112.32C5.4375 114.783 7.35198 116.779 9.7136 116.779Z" fill="#3F3F3F"/>
<path d="M26.6685 13.5954C26.6685 14.8252 25.7129 15.8217 24.5335 15.8217C23.3541 15.8217 22.3984 14.8252 22.3984 13.5954C22.3984 12.3656 23.3541 11.3691 24.5335 11.3691C25.7068 11.3691 26.6685 12.3656 26.6685 13.5954Z" fill="#373737"/>
<defs>
<linearGradient id="paint0_linear_2856_646" x1="68.6872" y1="0.960937" x2="68.6872" y2="60.7251" gradientUnits="userSpaceOnUse">
<stop stop-color="#AA7B34"/>
<stop offset="1" stop-color="#AA7B34" stop-opacity="0"/>
</linearGradient>
<linearGradient id="paint1_linear_2856_646" x1="74.5747" y1="9.25586" x2="74.5747" y2="101.096" gradientUnits="userSpaceOnUse">
<stop stop-color="#AA7B34"/>
<stop offset="1" stop-color="#AA7B34" stop-opacity="0"/>
</linearGradient>
<linearGradient id="paint2_linear_2856_646" x1="99.1679" y1="2.15332" x2="99.1679" y2="84.5129" gradientUnits="userSpaceOnUse">
<stop stop-color="#AA7B34"/>
<stop offset="1" stop-color="#AA7B34" stop-opacity="0"/>
</linearGradient>
<linearGradient id="paint3_linear_2856_646" x1="91.1181" y1="67.8828" x2="91.1181" y2="100.836" gradientUnits="userSpaceOnUse">
<stop stop-color="#AA7B34"/>
<stop offset="1" stop-color="#AA7B34" stop-opacity="0"/>
</linearGradient>
<linearGradient id="paint4_linear_2856_646" x1="54.1107" y1="9.25684" x2="54.1107" y2="133.651" gradientUnits="userSpaceOnUse">
<stop stop-color="#AA7B34"/>
<stop offset="1" stop-color="#AA7B34" stop-opacity="0"/>
</linearGradient>
</defs>
</svg>
