<svg width="47" height="47" viewBox="0 0 47 47" fill="none" xmlns="http://www.w3.org/2000/svg">
<circle cx="23.5" cy="23.5" r="22.5" stroke="url(#paint0_angular_2929_1562)" stroke-width="2"/>
<path fill-rule="evenodd" clip-rule="evenodd" d="M23.5758 12.2621C21.9512 12.2231 18.2379 13.0185 16.382 16.5121C16.3755 16.6096 16.2182 16.8201 15.6411 16.8825C15.3227 17.5908 14.7249 19.2999 14.8808 20.4697C15.1343 20.4307 15.6801 20.4697 15.8361 20.9376C16.0375 21.0026 16.456 21.2768 16.5184 21.8539L16.5257 21.9228C16.6103 22.7326 16.8765 25.2828 19.6767 25.2071C19.0723 26.0649 17.8831 28.1236 17.9611 29.4961C18.0586 31.2117 18.429 31.3872 19.6767 31.0557C20.6749 30.7906 22.3116 30.6788 22.8509 30.6658C21.7722 31.0493 19.3024 31.9564 19.2868 32.4399C19.2673 33.0443 22.1332 33.1613 23.5758 33.1418V36.2026L22.5425 35.8127L22.6985 36.2026L20.632 34.8769L20.9244 35.5007C20.3396 35.0783 19.1113 34.1438 18.8774 33.7851C18.6434 33.4264 19.0528 34.2205 19.2868 34.6624C18.8059 34.409 17.731 33.6175 17.2788 32.4789L17.5127 33.5707C17.1553 33.3497 16.382 32.6193 16.148 31.4652V32.05C15.8361 31.6406 15.2161 30.4943 15.2317 29.1842L14.9198 29.9055C14.8483 29.6261 14.7365 28.9268 14.8613 28.3654H13.5356C13.3796 28.3134 13.0638 28.1275 13.0482 27.8C12.8598 27.826 12.479 27.7142 12.4634 27.0592C12.2814 26.7537 11.9058 25.8115 11.859 24.4858C11.8122 23.1601 12.2424 22.1788 12.4634 21.8539C12.4244 21.5874 12.5024 21.0584 13.1262 21.074C13.1392 20.8726 13.2432 20.4697 13.5551 20.4697H14.179C14.3024 19.4689 14.6586 17.3192 15.0953 16.7265C14.9523 16.5706 14.7093 16.1768 14.8808 15.8492L14.8844 15.8424C15.1208 15.3908 17.5446 10.76 23.5758 10.5854V12.2621ZM16.7914 19.7483C17.0968 18.7736 18.1015 16.5472 19.6767 15.4398L19.4233 16.2002C19.8132 15.6933 21.1974 14.2701 21.1974 14.2701L20.9244 14.9524C21.3598 14.4911 22.7765 13.3733 22.7765 13.3733L22.5621 13.8997L23.5758 13.3733V19.4559C23.3094 19.5144 22.4061 19.5456 20.9244 19.2025C19.4428 18.8594 18.9944 19.2285 18.9554 19.4559C18.3185 19.4364 16.9941 19.4676 16.7914 19.7483ZM21.648 24.8122C22.0465 24.8631 22.4204 24.9164 22.7328 24.961C23.1388 25.0189 23.4411 25.062 23.5586 25.0657V25.0658C23.6829 25.061 24.0037 25.0159 24.4278 24.9563C24.738 24.9127 25.1033 24.8613 25.4875 24.8122C26.7847 24.6466 27.593 25.9235 26.6767 26.7813C26.6637 26.2614 26.4427 25.2061 25.6629 25.1437C25.3652 25.1199 24.7772 25.2198 24.2912 25.3025C23.9496 25.3605 23.6585 25.41 23.5539 25.402V25.4019C23.5043 25.4001 23.3449 25.3731 23.1321 25.337L23.1321 25.337L23.132 25.337L23.132 25.337L23.132 25.337L23.1319 25.337L23.1319 25.337C22.6281 25.2516 21.8253 25.1155 21.4726 25.1437C20.6928 25.2061 20.4718 26.2614 20.4588 26.7813C19.5425 25.9235 20.3508 24.6466 21.648 24.8122ZM23.3442 26.1379L23.2662 27.3467C23.2333 26.8044 22.8681 26.7746 22.3455 26.7319H22.3455C22.2481 26.724 22.1452 26.7156 22.038 26.7033C21.648 26.7033 21.1022 26.3719 21.1996 25.982C21.4003 25.1792 22.8958 25.748 23.3442 26.1379ZM23.7914 26.1379L23.8693 27.3467C23.9022 26.8044 24.2674 26.7746 24.79 26.7319H24.79L24.7905 26.7319L24.7909 26.7319C24.8881 26.7239 24.9907 26.7155 25.0976 26.7033C25.4875 26.7033 26.0333 26.3719 25.9359 25.982C25.7352 25.1792 24.2398 25.748 23.7914 26.1379ZM30.7701 16.5121C28.9141 13.0185 25.2009 12.2231 23.5763 12.2621V10.5855C29.6075 10.76 32.0313 15.3909 32.2677 15.8425L32.2713 15.8493C32.4428 16.1768 32.1998 16.5706 32.0568 16.7266C32.4935 17.3193 32.8496 19.469 32.9731 20.4697H33.597C33.9089 20.4697 34.0129 20.8726 34.0259 21.0741C34.6497 21.0585 34.7277 21.5875 34.6887 21.8539C34.9097 22.1788 35.3399 23.1601 35.2931 24.4858C35.2463 25.8115 34.8707 26.7538 34.6887 27.0592C34.6731 27.7143 34.2923 27.826 34.1039 27.8001C34.0883 28.1276 33.7724 28.3134 33.6165 28.3654H32.2908C32.4156 28.9269 32.3038 29.6261 32.2323 29.9056L31.9204 29.1842C31.936 30.4943 31.316 31.6407 31.0041 32.0501V31.4652C30.7701 32.6193 29.9968 33.3498 29.6394 33.5707L29.8733 32.479C29.421 33.6175 28.3462 34.409 27.8653 34.6625C28.0992 34.2206 28.5086 33.4265 28.2747 33.7852C28.0408 34.1439 26.8125 35.0784 26.2277 35.5008L26.5201 34.8769L24.4536 36.2026L24.6095 35.8127L23.5763 36.2026V33.1418C25.0189 33.1613 27.8848 33.0443 27.8653 32.44C27.8497 31.9565 25.6883 31.0688 24.6095 30.6854C25.1489 30.6984 26.4772 30.7907 27.4754 31.0558C28.7231 31.3872 29.0935 31.2118 29.191 29.4962C29.269 28.1237 28.0797 26.065 27.4754 25.2072C30.2756 25.2828 30.5418 22.7327 30.6264 21.9228L30.6337 21.8539C30.696 21.2769 31.1146 21.0026 31.316 20.9376C31.472 20.4697 32.0178 20.4307 32.2713 20.4697C32.4272 19.3 31.8294 17.5909 31.5109 16.8826C30.9339 16.8202 30.7766 16.6096 30.7701 16.5121ZM27.4754 15.4399C29.0506 16.5472 30.0553 18.7736 30.3607 19.7484C30.158 19.4677 28.8336 19.4365 28.1967 19.456C28.1577 19.2285 27.7093 18.8594 26.2277 19.2025C24.746 19.5457 23.8427 19.5145 23.5763 19.456V13.3734L24.59 13.8997L24.3756 13.3734C24.3756 13.3734 25.7923 14.4911 26.2277 14.9525L25.9547 14.2702C25.9547 14.2702 27.3389 15.6933 27.7288 16.2002L27.4754 15.4399ZM21.744 20.1774C22.633 20.4893 23.3361 20.6193 23.5765 20.6453V21.3667C23.5765 21.3667 23.3777 21.3861 23.1281 21.854C22.9467 22.2081 22.8275 22.5531 22.7164 22.875L22.7164 22.875C22.3379 23.9708 22.0522 24.7979 19.7164 24.7979C17.3005 24.7979 17.0459 23.1428 16.7731 21.3699L16.7726 21.3667C16.4412 21.3861 16.0439 20.3966 16.6751 20.1774C18.0788 19.69 20.6327 19.7875 21.744 20.1774ZM17.9021 21.1133C17.6993 21.3316 17.7266 21.8801 17.7656 22.127C18.0464 21.5188 19.0263 21.0938 19.4812 20.9573C19.0393 20.9183 18.1048 20.8949 17.9021 21.1133ZM23.5792 20.6451C23.8197 20.6191 24.5228 20.4891 25.4118 20.1772C26.5231 19.7873 29.077 19.6898 30.4806 20.1772C31.1119 20.3964 30.7146 21.3859 30.3832 21.3664L30.3827 21.3697C30.1099 23.1426 29.8553 24.7977 27.4393 24.7977C25.1035 24.7977 24.8179 23.9706 24.4394 22.8748C24.3283 22.5529 24.2091 22.2079 24.0276 21.8538C23.7781 21.3859 23.5792 21.3664 23.5792 21.3664V20.6451ZM25.2845 22.1329C25.2455 21.8859 25.2182 21.3374 25.421 21.1191C25.6237 20.9007 26.5582 20.9241 27.0001 20.9631C26.5452 21.0996 25.5652 21.5246 25.2845 22.1329ZM20.0441 29.1795C21.7073 28.8941 24.886 28.4697 27.9247 29.3528C27.9736 29.367 28.0651 29.4121 28.1064 29.442C28.4004 29.6556 28.0395 29.8507 27.685 29.7705C26.2563 29.4473 23.2037 29.1111 20.4383 29.6414C19.6484 29.7929 19.2514 29.3156 20.0441 29.1795Z" fill="url(#paint1_angular_2929_1562)"/>
<defs>
<radialGradient id="paint0_angular_2929_1562" cx="0" cy="0" r="1" gradientUnits="userSpaceOnUse" gradientTransform="translate(23.5 23.5) rotate(90) scale(23.5)">
<stop offset="0.0789357" stop-color="#A68937"/>
<stop offset="0.259769" stop-color="#C6B454"/>
<stop offset="0.459906" stop-color="#947127"/>
<stop offset="0.633307" stop-color="#CEBF5C"/>
<stop offset="0.760802" stop-color="#A78A38"/>
<stop offset="0.902935" stop-color="#D7CB64"/>
</radialGradient>
<radialGradient id="paint1_angular_2929_1562" cx="0" cy="0" r="1" gradientUnits="userSpaceOnUse" gradientTransform="translate(23.5761 23.394) rotate(90) scale(12.8086 11.7207)">
<stop offset="0.0789357" stop-color="#A68937"/>
<stop offset="0.259769" stop-color="#C6B454"/>
<stop offset="0.459906" stop-color="#947127"/>
<stop offset="0.633307" stop-color="#CEBF5C"/>
<stop offset="0.760802" stop-color="#A78A38"/>
<stop offset="0.902935" stop-color="#D7CB64"/>
</radialGradient>
</defs>
</svg>
